<svg width="128" height="128" viewBox="0 0 128 128" fill="none" xmlns="http://www.w3.org/2000/svg">
<rect width="128" height="128" fill="white"/>
<rect width="66" height="128" fill="#222222"/>
<path d="M52.3333 65.6667C52.3333 63.781 52.3333 62.8382 52.9191 62.2525C53.5049 61.6667 54.4477 61.6667 56.3333 61.6667H71.6667C73.5523 61.6667 74.4951 61.6667 75.0809 62.2525C75.6667 62.8382 75.6667 63.781 75.6667 65.6667V77C75.6667 80.7712 75.6667 82.6569 74.4951 83.8284C73.3235 85 71.4379 85 67.6667 85H60.3333C56.5621 85 54.6765 85 53.5049 83.8284C52.3333 82.6569 52.3333 80.7712 52.3333 77V65.6667Z" fill="#2E62FC" stroke="#2E62FC" stroke-width="2"/>
<path d="M57 54C57 52.1144 57 51.1716 57.5858 50.5858C58.1716 50 59.1144 50 61 50H67C68.8856 50 69.8284 50 70.4142 50.5858C71 51.1716 71 52.1144 71 54V61.6667H57V54Z" fill="#2E62FC" stroke="#2E62FC" stroke-width="2"/>
<path d="M64 61.6667V71" stroke="#2E62FC" stroke-width="2"/>
<path d="M71 43L66.3333 50" stroke="#2E62FC" stroke-width="2"/>
<path d="M57 43L61.6667 50" stroke="#2E62FC" stroke-width="2"/>
<path d="M52.3333 73.3333H40.6667" stroke="#2E62FC" stroke-width="2"/>
<path d="M87.3333 73.3333H75.6667" stroke="#2E62FC" stroke-width="2"/>
<path d="M82.6667 57V60.3333C82.6667 63.1618 82.6667 64.576 81.788 65.4547C80.9093 66.3333 79.4951 66.3333 76.6667 66.3333H75.6667" stroke="#2E62FC" stroke-width="2"/>
<path d="M82.6667 87.3333V86.3333C82.6667 83.5049 82.6667 82.0907 81.788 81.212C80.9093 80.3333 79.4951 80.3333 76.6667 80.3333H75.6667" stroke="#2E62FC" stroke-width="2"/>
<path d="M45.3333 57V60.3333C45.3333 63.1618 45.3333 64.576 46.212 65.4547C47.0907 66.3333 48.5049 66.3333 51.3333 66.3333H52.3333" stroke="#2E62FC" stroke-width="2"/>
<path d="M45.3333 87.3333V86.3333C45.3333 83.5049 45.3333 82.0907 46.212 81.212C47.0907 80.3333 48.5049 80.3333 51.3333 80.3333H52.3333" stroke="#2E62FC" stroke-width="2"/>
</svg>
